{"title":"Lucio Fulci - Sette Note In Nero / The Psychic (1977)","uid":8377320,"size":1400566812,"categoryP":"video","categoryS":"movies","magnet":"?xt=urn:btih:1ab2737bd38d1d7b3ff6f3144a33f6ed6e19d3ad&amp;dn=Lucio+Fulci+-+Sette+Note+In+Nero+%2F+The+Psychic+%281977%29&amp;tr=udp%3A%2F%2Ftracker.openbittorrent.com%3A80&amp;tr=udp%3A%2F%2Fopen.demonii.com%3A1337&amp;tr=udp%3A%2F%2Ftracker.coppersurfer.tk%3A6969&amp;tr=udp%3A%2F%2Fexodus.desync.com%3A6969","seeders":4,"leechers":0,"uploader":"moonflux","files":1,"time":1366085371,"description":"Unique ID : 25144630503835058648634268892213104977 (0x12EAADFFB0F5D425E266D5300CD15151)\nComplete name : /home/gj5/home/data/The Psychic (1977).mkv\nFormat : Matroska\nFormat version : Version 2\nFile size : 1.30 GiB\nDuration : 1h 37mn\nOverall bit rate : 1 917 Kbps\nMovie name : Avidemux\nWriting application : Lavf52.78.3\nWriting library : Lavf52.78.3\n\nVideo\nID : 1\nFormat : AVC\nFormat/Info : Advanced Video Codec\nFormat profile : &lt;a class=&quot;__cf_email__&quot; href=&quot;/cdn-cgi/l/email-protection&quot; data-cfemail=&quot;1a52737d725a5629342a&quot;&gt;[email&amp;#160;protected]&lt;/a&gt;&lt;script cf-hash='f9e31' type=&quot;text/javascript&quot;&gt;\n/* &lt;![CDATA[ */!function(){try{var t=&quot;currentScript&quot;in document?document.currentScript:function(){for(var t=document.getElementsByTagName(&quot;script&quot;),e=t.length;e--;)if(t[e].getAttribute(&quot;cf-hash&quot;))return t[e]}();if(t&amp;&amp;t.previousSibling){var e,r,n,i,c=t.previousSibling,a=c.getAttribute(&quot;data-cfemail&quot;);if(a){for(e=&quot;&quot;,r=parseInt(a.substr(0,2),16),n=2;a.length-n;n+=2)i=parseInt(a.substr(n,2),16)^r,e+=String.fromCharCode(i);e=document.createTextNode(e),c.parentNode.replaceChild(e,c)}}}catch(u){}}();/* ]]&gt; */&lt;/script&gt;\nFormat settings, CABAC : Yes\nFormat settings, ReFrames : 4 frames\nFormat settings, GOP : M=4, N=7\nCodec ID : V_MPEG4/ISO/AVC\nDuration : 1h 37mn\nBit rate : 1 721 Kbps\nWidth : 704 pixels\nHeight : 384 pixels\nDisplay aspect ratio : 16:9\nFrame rate mode : Variable\nFrame rate : 29.970 fps\nColor space : YUV\nChroma subsampling : 4:2:0\nBit depth : 8 bits\nScan type : Progressive\nBits/(Pixel*Frame) : 0.212\nStream size : 1.15 GiB (88%)\nWriting library : x264 core 106 r1732 b20059a\nEncoding settings : cabac=1 / ref=3 / deblock=1:0:0 / analyse=0x3:0x113 / me=hex / subme=7 / psy=1 / psy_rd=1.00:0.00 / mixed_ref=1 / me_range=16 / chroma_me=1 / trellis=1 / 8x8dct=1 / cqm=0 / deadzone=21,11 / fast_pskip=1 / chroma_qp_offset=-2 / threads=3 / sliced_threads=0 / nr=0 / decimate=1 / interlaced=0 / constrained_intra=0 / bframes=3 / b_pyramid=2 / b_adapt=1 / b_bias=0 / direct=1 / weightb=1 / open_gop=0 / weightp=2 / keyint=250 / keyint_min=25 / scenecut=40 / intra_refresh=0 / rc_lookahead=40 / rc=2pass / mbtree=1 / bitrate=1721 / ratetol=1.0 / qcomp=0.60 / qpmin=10 / qpmax=51 / qpstep=4 / cplxblur=20.0 / qblur=0.5 / ip_ratio=1.40 / aq=1:1.00\nLanguage : English\n\nAudio\nID : 2\nFormat : AC-3\nFormat/Info : Audio Coding 3\nMode extension : CM (complete main)\nCodec ID : A_AC3\nDuration : 1h 37mn\nBit rate mode : Constant\nBit rate : 192 Kbps\nChannel(s) : 2 channels\nChannel positions : Front: L R\nSampling rate : 48.0 KHz\nBit depth : 16 bits\nCompression mode : Lossy\nDelay relative to video : -33ms\nStream size : 134 MiB (10%)\nLanguage : English\n","torrent":{"xt":"urn:btih:1ab2737bd38d1d7b3ff6f3144a33f6ed6e19d3ad","amp;dn":"Lucio+Fulci+-+Sette+Note+In+Nero+%2F+The+Psychic+%281977%29","amp;tr":["udp%3A%2F%2Ftracker.openbittorrent.com%3A80","udp%3A%2F%2Fopen.demonii.com%3A1337","udp%3A%2F%2Ftracker.coppersurfer.tk%3A6969","udp%3A%2F%2Fexodus.desync.com%3A6969"],"infoHash":"1ab2737bd38d1d7b3ff6f3144a33f6ed6e19d3ad","infoHashBuffer":{"type":"Buffer","data":[26,178,115,123,211,141,29,123,63,246,243,20,74,51,246,237,110,25,211,173]},"announce":[],"urlList":[]}}